PathFileType	4	(X/Y/Z)	Patient4_TMGait_0pt7_02_right_05.trc.trc
DataRate	CameraRate	NumFrames	NumMarkers	Units	OrigDataRate	OrigDataStartFrame	OrigNumFrames
89.171974522293	89.171974522293	4	33	mm	89.171974522293	18	       141
Frame#	Time	Sacral			L.Shoulder			Chest			R.Shoulder			Neck			R.ASIS			L.ASIS			R.Thigh.Superior			R.Thigh.Lateral			R.Thigh.Inferior			R.Patella			L.Thigh.Superior			L.Thigh.Lateral			L.Thigh.Inferior			L.Patella			L.Shank.Superior			L.Shank.Lateral			L.Shank.Inferior			R.Shank.Superior			R.Shank.Lateral			R.Shank.Inferior			R.Heel			R.Midfoot.Superior			R.Midfoot.Lateral			R.Toe			L.Heel			L.Midfoot.Lateral			L.Midfoot.Superior			L.Toe			L.Elbow			L.Wrist			R.Elbow			R.Wrist			
		X1	Y1	Z1	X2	Y2	Z2	X3	Y3	Z3	X4	Y4	Z4	X5	Y5	Z5	X6	Y6	Z6	X7	Y7	Z7	X8	Y8	Z8	X9	Y9	Z9	X10	Y10	Z10	X11	Y11	Z11	X12	Y12	Z12	X13	Y13	Z13	X14	Y14	Z14	X15	Y15	Z15	X16	Y16	Z16	X17	Y17	Z17	X18	Y18	Z18	X19	Y19	Z19	X20	Y20	Z20	X21	Y21	Z21	X22	Y22	Z22	X23	Y23	Z23	X24	Y24	Z24	X25	Y25	Z25	X26	Y26	Z26	X27	Y27	Z27	X28	Y28	Z28	X29	Y29	Z29	X30	Y30	Z30	X31	Y31	Z31	X32	Y32	Z32	X33	Y33	Z33	

18	4.990642857143	828.072641926348	1018.540443432303	437.176890355522	1057.208342983680	1425.721190226107	250.081714284495	1146.433873357213	1344.843410595726	414.303985440415	1067.815236484821	1434.044280268618	582.609478830142	1058.899656880816	1485.835831973002	400.935238135888	1050.587748133171	936.970903000706	554.021002839161	1031.307481516172	952.950229657766	282.029845026262	1120.592308055439	776.290416720524	521.906611290354	1090.524107021290	656.611579891333	604.893874944963	1172.895730788229	617.426433519668	519.228198937806	1211.904524840473	533.772509592248	541.174501317498	1027.070856763336	730.624443491492	306.513594649598	902.517076484593	642.871397629007	250.423011830382	962.742765566299	545.998984707352	309.577774621090	946.023541687376	482.068251060879	319.614108802754	912.316251592621	417.214991552949	314.710706258457	805.707542522627	314.782304654500	272.849428755204	848.657304555590	198.255470795718	341.589740820052	1191.800223726890	444.655875140721	555.258374860019	1137.508919361067	334.800315121921	624.710870268219	1200.197562648626	244.571726055656	572.012498025455	1098.932146612141	60.209394288587	552.418682421579	1265.765980070094	127.092737218039	581.531973923966	1187.307305281362	53.799763725199	620.197845851302	1390.799101210393	85.756185257084	601.401798513424	706.823930931491	51.898628435217	391.940081827014	778.744851121806	41.722699857102	311.213314171734	865.842135259586	97.925563705406	333.497909828231	989.513360032058	38.044412782485	303.960372401969	1096.742393579251	1105.095418493263	92.872446911486	1344.898227248773	1090.849822758797	144.334304028490	884.714463642420	1150.259323123753	707.535156341447	821.692675197543	895.688667850923	717.409143115292	
19	5.001857142857	829.957101899190	1016.014990837907	439.155500049692	1057.415943933928	1423.952073402654	251.739380129493	1146.974368242338	1343.471299298270	415.940516635289	1068.057239274776	1432.323419049715	584.320793369271	1058.875890065575	1484.009910877314	402.654348369597	1052.657585382568	934.539597240738	555.381088134879	1032.211330340489	950.509826308956	284.097197300154	1120.869031705055	771.875319839816	523.264519274673	1088.848390646066	652.300670223036	606.020831033938	1170.682037479504	612.612647625330	520.089368998040	1208.569303979570	530.005093781999	541.453134082614	1026.445318942907	728.522820665457	308.085581256622	901.020907047441	642.002603277750	251.380460541259	959.761196867496	544.494862790707	310.841847927997	942.280792905069	480.530990231297	320.706065099170	907.970857345768	416.042896822599	315.519062448543	800.355357522780	314.743663597589	273.286363320101	841.793557954225	197.717104010276	341.929411676508	1190.475279067756	440.871185200018	555.330662759317	1137.934387114300	329.276925067415	623.307082775835	1203.335428901220	240.853827903039	570.447674871684	1106.386715140666	54.640109931948	548.625205822295	1271.951418954294	124.555690643235	579.477668849219	1194.313334817668	49.688146149229	616.970238166422	1397.488681094702	85.191190750448	599.831483051721	698.871393592877	51.995966904072	391.864283039084	770.834052909638	41.740285574401	311.185885460741	857.927685861469	97.894865874959	333.575913500263	981.556456524156	37.981268472229	303.975839623698	1096.827093434254	1103.346264682268	94.355464017352	1344.902795162790	1091.977094674059	146.064251311723	882.153893392880	1150.776128930136	708.618462610664	816.256672497266	896.960506864837	720.218169393529	
20	5.013071428571	831.969012203839	1013.438200294726	441.297617098890	1057.525766434271	1422.173938904469	253.557527402012	1147.541666463591	1342.143741757503	417.707236900073	1068.362119389743	1430.583922633446	586.222673483602	1058.851628323400	1482.211307189018	404.568356704147	1054.873125113759	932.110206915421	556.881230629886	1033.439160246816	948.121138565876	286.195940726726	1121.641238296984	767.711870334879	524.961394461942	1087.292287124455	648.002120497105	606.900757133892	1169.096193391889	608.163432326297	521.155882465354	1205.509492694459	526.095698272302	541.709008100433	1026.472569106091	726.496429762181	309.556392267085	900.236593349988	641.033152295332	252.440015053489	957.724035900212	542.932417241521	312.071028446294	939.534235394857	478.768185546996	321.814070634271	904.447485878130	414.672574939164	316.322501935841	795.581149256201	314.773188098737	273.717343691592	835.193745465416	197.159774013175	342.224213557733	1188.839677272306	436.840225402601	555.187128879373	1137.032697687291	324.024222828649	621.508095570082	1204.339559273683	236.966849646392	568.579147270861	1110.034770245215	50.267821553710	544.648602628577	1274.868344533733	121.521956981372	577.036924306355	1197.394280977956	46.128433280715	613.595546639354	1400.438340923840	82.966734160692	597.952077969687	690.921227539819	52.291815875331	391.717396117133	762.937679214409	41.801374057965	311.110168696701	850.089395988921	97.911917338636	333.559501813533	973.616091838095	37.917576443151	303.984036412704	1096.187825662076	1101.306573253655	96.129913470923	1344.231865828555	1091.915854462946	147.771079594056	880.741929064237	1150.410250412979	709.871709955434	812.511457096873	897.204465766690	722.863736219979	
21	5.024285714286	834.073722207324	1010.905703234163	443.574197370044	1057.572020982534	1420.440790484126	255.538592643513	1148.164128346839	1340.902640907925	419.606324703314	1068.766984335955	1428.882345322318	588.312157463516	1058.877269347729	1480.500022839322	406.675208453358	1057.203025301955	929.765923867185	558.527771764539	1035.040353666942	945.923448613041	288.275348676845	1122.917096731663	763.866156810687	527.018428091604	1085.824454969413	643.807585283578	607.503154794889	1168.142601372704	604.159802577949	522.419802850808	1202.783971468881	522.159276212606	541.891774901216	1027.157402988275	724.582052751576	310.903657675611	900.169965969048	639.975163761270	253.608544695344	956.703073555456	541.315411744305	313.216881203727	937.881045259391	476.764986348256	322.866992382802	901.795439393094	413.104883370210	317.091653192602	791.415228528965	314.909105927279	274.147550327164	828.892824914793	196.615682804922	342.453833304199	1186.989132790308	432.693116461802	554.813866006059	1135.051504650268	319.119093629683	619.448668421357	1203.457664692690	232.957329894298	566.484981139578	1110.171785990963	46.954783827102	540.751020264421	1274.830446894463	118.053647599233	574.303122620095	1196.935840496569	43.130133598456	610.301652179745	1400.081658967335	79.265235288771	595.838247934170	682.986291838650	52.856880971175	391.498362930177	755.058712877526	41.929106367930	310.986236019795	842.361524198092	97.979681139850	333.426614702602	965.697339998172	37.861864246042	303.986139951890	1094.826150716831	1099.019630630389	98.219936976876	1342.915020999036	1090.662152787394	149.468914107088	880.539082927905	1149.162582212552	711.325300174126	810.550877263119	896.418751999607	725.272929972405	
